<?xml version="1.0" standalone="no"?>
<!DOCTYPE svg PUBLIC "-//W3C//DTD SVG 20010904//EN"
 "http://www.w3.org/TR/2001/REC-SVG-20010904/DTD/svg10.dtd">
<svg version="1.0" xmlns="http://www.w3.org/2000/svg"
 width="500.000000pt" height="500.000000pt" viewBox="0 0 500.000000 500.000000"
 preserveAspectRatio="xMidYMid meet">
<metadata>
Created by potrace 1.11, written by Peter Selinger 2001-2013
</metadata>
<g transform="translate(0.000000,500.000000) scale(0.100000,-0.100000)"
fill="#000000" stroke="none">
<path d="M2225 4374 c-311 -37 -558 -124 -789 -279 -477 -320 -738 -899 -687
-1523 21 -258 69 -439 176 -657 220 -447 646 -755 1170 -846 104 -18 167 -22
320 -22 175 0 234 6 425 39 l35 6 242 -269 c134 -147 280 -308 325 -358 45
-49 101 -112 125 -139 39 -44 46 -48 76 -42 34 6 133 65 227 135 139 104 245
187 245 193 0 3 -152 171 -339 374 l-338 368 38 30 c80 61 261 254 320 341
206 303 308 676 291 1065 -38 858 -616 1489 -1449 1579 -90 10 -343 13 -413 5z
m398 -579 c405 -71 671 -357 753 -810 24 -133 24 -412 1 -541 -63 -347 -229
-594 -489 -725 -265 -133 -643 -140 -911 -16 -103 48 -181 103 -258 183 -82
86 -120 143 -171 251 -129 276 -149 715 -47 1033 25 78 86 202 128 263 129
189 337 319 574 362 100 18 316 18 420 0z"/>
</g>
</svg>
