<?xml version="1.0" standalone="no"?>
<!DOCTYPE svg PUBLIC "-//W3C//DTD SVG 20010904//EN"
 "http://www.w3.org/TR/2001/REC-SVG-20010904/DTD/svg10.dtd">
<svg version="1.0" xmlns="http://www.w3.org/2000/svg"
 width="500.000000pt" height="500.000000pt" viewBox="0 0 500.000000 500.000000"
 preserveAspectRatio="xMidYMid meet">
<metadata>
Created by potrace 1.11, written by Peter Selinger 2001-2013
</metadata>
<g transform="translate(0.000000,500.000000) scale(0.100000,-0.100000)"
fill="#000000" stroke="none">
<path d="M2263 4357 c-3 -5 -15 -7 -26 -6 -32 4 -169 -12 -187 -21 -8 -5 -44
-15 -80 -23 -81 -19 -224 -69 -228 -79 -2 -5 -10 -8 -19 -8 -33 0 -312 -160
-361 -207 -7 -7 -17 -13 -21 -13 -5 0 -50 -43 -102 -95 -120 -122 -129 -131
-160 -180 -15 -22 -37 -51 -50 -65 -13 -13 -24 -28 -24 -32 0 -4 -9 -18 -20
-30 -11 -13 -18 -28 -17 -34 1 -7 -4 -14 -13 -17 -8 -4 -12 -12 -10 -19 3 -8
-4 -23 -15 -35 -11 -12 -20 -29 -20 -36 0 -8 -7 -20 -15 -27 -8 -7 -12 -16 -9
-21 3 -5 -2 -16 -11 -25 -9 -9 -14 -23 -11 -30 3 -8 2 -14 -3 -14 -13 0 -58
-151 -81 -270 -67 -342 -37 -705 83 -1020 186 -490 632 -862 1162 -969 261
-53 541 -51 820 4 29 6 40 -5 266 -258 139 -154 257 -277 285 -296 26 -17 78
-41 114 -53 60 -20 89 -22 408 -26 188 -2 342 -1 342 3 0 3 -185 207 -411 452
l-410 446 33 26 c414 322 633 816 615 1391 -6 182 -19 277 -61 436 -78 292
-258 583 -476 771 -142 122 -335 235 -505 296 -97 34 -272 76 -342 82 -32 2
-60 5 -63 6 -16 7 -373 3 -377 -4z m422 -576 c339 -85 570 -321 665 -676 46
-173 60 -379 40 -573 -15 -140 -52 -298 -86 -364 -8 -14 -14 -33 -14 -41 0
-17 -28 -75 -40 -82 -5 -3 -7 -12 -4 -20 3 -7 -4 -18 -15 -25 -12 -6 -21 -17
-21 -26 0 -8 -7 -17 -15 -20 -8 -4 -15 -11 -15 -18 -2 -34 -185 -194 -262
-229 -21 -9 -53 -24 -70 -32 -75 -33 -149 -56 -187 -58 -23 -1 -41 -5 -41 -10
0 -5 -13 -6 -29 -2 -17 3 -39 2 -50 -4 -11 -6 -22 -8 -24 -4 -3 5 -52 7 -108
6 -60 -1 -109 3 -116 9 -7 6 -26 8 -43 6 -16 -3 -30 -2 -30 2 0 3 -28 12 -62
19 -204 42 -417 186 -535 364 -85 127 -147 301 -173 482 -15 106 -12 376 5
480 32 199 104 376 208 510 133 173 361 299 597 329 89 11 346 -3 425 -23z"/>
</g>
</svg>
